<?xml version="1.0" encoding="UTF-8"?>
<svg
   width="46"
   height="50"
   viewBox="0 0 109 118"
   version="1.1"
   preserveAspectRatio="xMidYMid meet"
   xmlns="http://www.w3.org/2000/svg">
  <path
     d="m 81.281306,77.002908 c 13.973135,-7.672504 24.566554,-13.518871 25.479624,-13.973134 2.92091,-1.55358 5.93722,-5.664662 0,-8.858132 C 104.84394,53.167721 94.523077,47.503059 81.281306,40.198508 L 62.924532,58.736987 Z"
     fill="#ffd900" />
  <path
     d="M 62.924532,58.736987 4.4744921,117.64583 c 1.3718747,0.18171 2.920912,-0.1817 4.7470499,-1.18562 3.833981,-2.0987 44.476905,-24.293998 72.059764,-39.452759 z"
     fill="#f43249" />
  <path
     d="M 62.924532,58.736987 81.281306,40.28936 c 0,0 -67.948682,-37.081501 -72.059764,-39.2710494 C 7.6725047,0.10069902 5.9372194,-0.17185887 4.3836394,0.10069902 Z"
     fill="#00ee76" />
  <path
     d="M 62.924532,58.736987 4.3836394,0.10069902 C 2.0078431,0.65035744 0,2.7490532 0,7.04184 c 0,6.850288 0,97.99819 0,103.66285 0,3.92938 1.55358,6.75944 4.4744921,7.03199 z"
     fill="#00d3ff" />
</svg>
