<?xml version="1.0" encoding="UTF-8" standalone="no"?>
<svg
   id="svg"
   version="1.1"
   width="400"
   height="400"
   viewBox="0, 0, 400,400"
   sodipodi:docname="image2vector.svg"
   inkscape:version="1.2-dev (9ee32be, 2021-06-19)"
   xmlns:inkscape="http://www.inkscape.org/namespaces/inkscape"
   xmlns:sodipodi="http://sodipodi.sourceforge.net/DTD/sodipodi-0.dtd"
   xmlns="http://www.w3.org/2000/svg"
   xmlns:svg="http://www.w3.org/2000/svg">
  <defs
     id="defs830" />
  <sodipodi:namedview
     id="namedview828"
     pagecolor="#ffffff"
     bordercolor="#666666"
     borderopacity="1.0"
     inkscape:pageshadow="2"
     inkscape:pageopacity="0.0"
     inkscape:pagecheckerboard="0"
     showgrid="false"
     inkscape:zoom="1.0718982"
     inkscape:cx="307.39859"
     inkscape:cy="262.15176"
     inkscape:window-width="1280"
     inkscape:window-height="772"
     inkscape:window-x="0"
     inkscape:window-y="0"
     inkscape:window-maximized="0"
     inkscape:current-layer="svg" />
  <g
     id="svgg">
    <path
       id="path0"
       d="M354.249 135.084 C 354.092 135.241,352.037 135.521,349.682 135.707 C 345.518 136.035,342.739 136.287,333.200 137.200 C 330.670 137.442,326.890 137.802,324.800 138.000 C 316.295 138.805,311.618 139.256,308.200 139.600 C 306.220 139.799,302.530 140.160,300.000 140.401 C 297.470 140.643,293.690 141.004,291.600 141.203 C 282.469 142.076,279.122 142.385,274.800 142.751 C 272.270 142.966,268.220 143.334,265.800 143.569 C 255.379 144.584,252.625 144.840,246.000 145.409 C 242.150 145.741,237.110 146.194,234.800 146.416 C 232.490 146.639,228.620 147.005,226.200 147.229 C 221.834 147.634,217.785 148.026,209.900 148.805 C 207.645 149.028,203.640 149.402,201.000 149.636 C 198.360 149.871,194.490 150.231,192.400 150.437 C 190.310 150.643,186.710 150.986,184.400 151.199 C 180.054 151.599,174.178 152.162,167.600 152.809 C 165.510 153.015,161.865 153.367,159.500 153.591 C 157.135 153.816,153.265 154.184,150.900 154.409 C 148.535 154.633,144.890 154.986,142.800 155.193 C 140.710 155.400,136.930 155.765,134.400 156.005 C 131.870 156.244,128.090 156.602,126.000 156.800 C 121.385 157.237,114.328 157.912,109.200 158.407 C 107.110 158.609,103.330 158.948,100.800 159.161 C 98.270 159.374,94.220 159.744,91.800 159.983 C 81.000 161.052,79.014 161.239,72.600 161.787 C 51.775 163.566,51.666 163.636,46.186 178.800 C 45.033 181.989,43.557 185.982,41.600 191.200 C 38.384 199.775,37.901 201.057,37.602 201.800 C 37.425 202.240,37.064 203.230,36.800 204.000 C 36.223 205.681,35.849 206.667,35.282 208.000 C 35.048 208.550,34.381 210.350,33.798 212.000 C 32.464 215.782,27.897 228.409,26.998 230.800 C 26.627 231.790,25.962 233.590,25.522 234.800 C 25.082 236.010,24.577 237.360,24.400 237.800 C 24.223 238.240,23.700 239.635,23.239 240.900 C 22.778 242.165,22.022 244.235,21.561 245.500 C 21.100 246.765,20.578 248.160,20.401 248.600 C 20.225 249.040,19.864 250.030,19.600 250.800 C 19.336 251.570,18.974 252.560,18.797 253.000 C 15.224 261.866,14.553 265.564,16.004 268.408 C 17.716 271.763,18.224 271.806,45.600 270.879 C 77.002 269.815,84.104 269.580,97.200 269.173 C 134.894 268.001,138.847 267.874,196.400 265.995 C 203.330 265.768,214.400 265.408,221.000 265.195 C 227.600 264.981,238.670 264.622,245.600 264.397 C 252.530 264.172,263.690 263.810,270.400 263.592 C 277.110 263.374,288.180 263.013,295.000 262.788 C 315.678 262.108,329.940 261.647,343.800 261.212 C 381.221 260.037,381.464 259.997,384.811 254.583 C 385.744 253.072,385.760 243.228,384.840 236.200 C 384.610 234.440,384.225 231.380,383.986 229.400 C 383.746 227.420,383.392 224.540,383.200 223.000 C 382.261 215.484,381.919 212.760,381.566 210.000 C 381.356 208.350,381.012 205.650,380.804 204.000 C 380.314 200.123,379.657 194.982,379.170 191.200 C 378.957 189.550,378.607 186.805,378.392 185.100 C 378.176 183.395,377.824 180.605,377.608 178.900 C 377.393 177.195,377.039 174.450,376.821 172.800 C 376.604 171.150,376.253 168.270,376.041 166.400 C 375.830 164.530,375.459 161.560,375.216 159.800 C 374.535 154.865,374.026 151.010,373.412 146.149 C 372.594 139.670,371.029 136.985,367.081 135.282 C 365.868 134.759,354.746 134.588,354.249 135.084 M366.285 137.540 C 368.401 138.621,369.499 139.763,370.379 141.800 C 371.087 143.441,371.497 146.168,373.203 160.600 C 373.437 162.580,373.810 165.640,374.031 167.400 C 374.252 169.160,375.690 180.860,377.226 193.400 C 378.762 205.940,380.825 222.681,381.809 230.602 C 384.292 250.571,384.122 253.124,380.130 255.759 C 376.552 258.121,375.434 258.229,344.600 259.197 C 323.938 259.846,319.787 259.979,307.400 260.388 C 277.441 261.379,268.303 261.648,264.600 261.653 C 262.400 261.655,255.560 261.818,249.400 262.014 C 243.240 262.210,231.720 262.560,223.800 262.792 C 215.880 263.023,207.060 263.393,204.200 263.613 C 201.340 263.833,192.610 264.190,184.800 264.406 C 176.990 264.621,168.170 264.888,165.200 264.999 C 162.230 265.109,154.130 265.383,147.200 265.606 C 140.270 265.829,129.650 266.183,123.600 266.393 C 117.550 266.603,108.730 266.873,104.000 266.994 C 99.270 267.115,90.450 267.387,84.400 267.598 C 78.350 267.809,67.820 268.163,61.000 268.384 C 54.180 268.605,42.660 268.998,35.400 269.258 C 22.436 269.720,22.167 269.714,20.350 268.909 C 16.890 267.376,16.559 263.904,19.206 256.900 C 19.643 255.745,20.360 253.810,20.800 252.600 C 22.759 247.213,23.299 245.749,23.602 245.000 C 24.262 243.369,25.304 240.569,25.611 239.600 C 25.786 239.050,26.463 237.160,27.116 235.400 C 27.769 233.640,30.134 227.160,32.372 221.000 C 36.484 209.677,37.815 206.055,38.399 204.600 C 38.575 204.160,38.936 203.170,39.200 202.400 C 39.464 201.630,39.843 200.595,40.040 200.100 C 40.238 199.605,40.562 198.795,40.760 198.300 C 40.957 197.805,41.336 196.770,41.600 196.000 C 41.864 195.230,42.224 194.240,42.400 193.800 C 42.576 193.360,42.936 192.370,43.200 191.600 C 43.464 190.830,43.826 189.840,44.003 189.400 C 44.674 187.736,45.555 185.242,47.182 180.400 C 52.174 165.551,54.859 163.861,74.195 163.409 C 75.204 163.386,74.356 166.331,66.993 188.421 C 62.665 201.404,59.234 212.312,59.368 212.660 C 59.573 213.196,60.118 213.256,62.905 213.047 C 64.717 212.911,71.960 212.424,79.000 211.964 C 87.108 211.435,91.973 210.959,92.272 210.665 C 92.531 210.409,95.916 199.130,99.794 185.600 C 103.671 172.070,107.059 160.791,107.322 160.535 C 107.585 160.280,109.330 160.010,111.200 159.935 L 114.600 159.800 114.577 161.200 C 114.565 161.970,112.911 168.540,110.902 175.800 C 102.045 207.808,101.549 209.709,101.941 210.101 C 102.199 210.359,104.647 210.340,109.067 210.043 C 112.770 209.795,120.120 209.312,125.400 208.970 C 130.680 208.628,135.391 208.270,135.869 208.175 C 136.985 207.951,137.073 207.662,139.974 194.600 C 146.237 166.405,148.420 157.020,148.808 156.632 C 149.039 156.401,150.797 156.085,152.714 155.929 C 156.123 155.653,160.542 155.248,169.400 154.402 C 171.820 154.171,175.690 153.808,178.000 153.594 C 180.310 153.381,184.000 153.026,186.200 152.807 C 196.901 151.739,200.483 151.523,200.885 151.925 C 201.167 152.207,200.139 160.431,197.624 178.024 C 195.372 193.781,194.096 203.856,194.323 204.083 C 194.550 204.310,197.073 204.289,200.847 204.028 C 204.231 203.793,209.070 203.512,211.600 203.402 C 217.462 203.146,228.379 202.456,231.067 202.170 C 233.854 201.874,233.340 205.276,236.830 164.000 C 237.587 155.053,238.283 148.802,238.555 148.508 C 238.822 148.221,240.714 147.905,243.106 147.748 L 247.200 147.480 247.185 149.840 C 247.177 151.138,246.390 163.000,245.436 176.200 C 244.483 189.400,243.788 200.425,243.894 200.700 C 244.138 201.337,245.488 201.325,255.600 200.599 C 260.110 200.275,268.536 199.673,274.324 199.261 C 280.113 198.849,285.019 198.341,285.228 198.132 C 285.455 197.905,285.713 187.000,285.869 171.094 C 286.013 156.432,286.247 144.248,286.389 144.018 C 286.780 143.385,290.878 142.747,293.694 142.881 L 296.200 143.000 296.400 169.880 C 296.548 189.834,296.722 196.883,297.074 197.234 C 297.501 197.661,332.986 195.751,339.065 194.974 C 341.175 194.705,341.198 194.627,340.772 189.162 C 340.577 186.653,339.788 175.420,339.019 164.200 C 338.250 152.980,337.518 142.775,337.393 141.523 C 337.102 138.613,337.132 138.597,344.011 137.998 C 346.975 137.739,351.650 137.290,354.400 136.999 C 360.971 136.303,364.146 136.448,366.285 137.540 "
       stroke="none"
       fill="#080808"
       fill-rule="evenodd" />
    <path
       id="path1"
       d="M354.400 136.999 C 351.650 137.290,346.975 137.739,344.011 137.998 C 337.132 138.597,337.102 138.613,337.393 141.523 C 337.518 142.775,338.250 152.980,339.019 164.200 C 339.788 175.420,340.577 186.653,340.772 189.162 C 341.198 194.627,341.175 194.705,339.065 194.974 C 332.986 195.751,297.501 197.661,297.074 197.234 C 296.722 196.883,296.548 189.834,296.400 169.880 L 296.200 143.000 293.694 142.881 C 290.878 142.747,286.780 143.385,286.389 144.018 C 286.247 144.248,286.013 156.432,285.869 171.094 C 285.713 187.000,285.455 197.905,285.228 198.132 C 285.019 198.341,280.113 198.849,274.324 199.261 C 268.536 199.673,260.110 200.275,255.600 200.599 C 245.488 201.325,244.138 201.337,243.894 200.700 C 243.788 200.425,244.483 189.400,245.436 176.200 C 246.390 163.000,247.177 151.138,247.185 149.840 L 247.200 147.480 243.106 147.748 C 240.714 147.905,238.822 148.221,238.555 148.508 C 238.283 148.802,237.587 155.053,236.830 164.000 C 233.340 205.276,233.854 201.874,231.067 202.170 C 228.379 202.456,217.462 203.146,211.600 203.402 C 209.070 203.512,204.231 203.793,200.847 204.028 C 197.073 204.289,194.550 204.310,194.323 204.083 C 194.096 203.856,195.372 193.781,197.624 178.024 C 200.139 160.431,201.167 152.207,200.885 151.925 C 200.483 151.523,196.901 151.739,186.200 152.807 C 184.000 153.026,180.310 153.381,178.000 153.594 C 175.690 153.808,171.820 154.171,169.400 154.402 C 160.542 155.248,156.123 155.653,152.714 155.929 C 150.797 156.085,149.039 156.401,148.808 156.632 C 148.420 157.020,146.237 166.405,139.974 194.600 C 137.073 207.662,136.985 207.951,135.869 208.175 C 135.391 208.270,130.680 208.628,125.400 208.970 C 120.120 209.312,112.770 209.795,109.067 210.043 C 104.647 210.340,102.199 210.359,101.941 210.101 C 101.549 209.709,102.045 207.808,110.902 175.800 C 112.911 168.540,114.565 161.970,114.577 161.200 L 114.600 159.800 111.200 159.935 C 109.330 160.010,107.585 160.280,107.322 160.535 C 107.059 160.791,103.671 172.070,99.794 185.600 C 95.916 199.130,92.531 210.409,92.272 210.665 C 91.973 210.959,87.108 211.435,79.000 211.964 C 71.960 212.424,64.717 212.911,62.905 213.047 C 60.118 213.256,59.573 213.196,59.368 212.660 C 59.234 212.312,62.665 201.404,66.993 188.421 C 74.356 166.331,75.204 163.386,74.195 163.409 C 54.859 163.861,52.174 165.551,47.182 180.400 C 45.555 185.242,44.674 187.736,44.003 189.400 C 43.826 189.840,43.464 190.830,43.200 191.600 C 42.936 192.370,42.576 193.360,42.400 193.800 C 42.224 194.240,41.864 195.230,41.600 196.000 C 41.336 196.770,40.957 197.805,40.760 198.300 C 40.562 198.795,40.238 199.605,40.040 200.100 C 39.843 200.595,39.464 201.630,39.200 202.400 C 38.936 203.170,38.575 204.160,38.399 204.600 C 37.815 206.055,36.484 209.677,32.372 221.000 C 30.134 227.160,27.769 233.640,27.116 235.400 C 26.463 237.160,25.786 239.050,25.611 239.600 C 25.304 240.569,24.262 243.369,23.602 245.000 C 23.299 245.749,22.759 247.213,20.800 252.600 C 20.360 253.810,19.643 255.745,19.206 256.900 C 16.559 263.904,16.890 267.376,20.350 268.909 C 22.167 269.714,22.436 269.720,35.400 269.258 C 42.660 268.998,54.180 268.605,61.000 268.384 C 67.820 268.163,78.350 267.809,84.400 267.598 C 90.450 267.387,99.270 267.115,104.000 266.994 C 108.730 266.873,117.550 266.603,123.600 266.393 C 129.650 266.183,140.270 265.829,147.200 265.606 C 154.130 265.383,162.230 265.109,165.200 264.999 C 168.170 264.888,176.990 264.621,184.800 264.406 C 192.610 264.190,201.340 263.833,204.200 263.613 C 207.060 263.393,215.880 263.023,223.800 262.792 C 231.720 262.560,243.240 262.210,249.400 262.014 C 255.560 261.818,262.400 261.655,264.600 261.653 C 268.303 261.648,277.441 261.379,307.400 260.388 C 319.787 259.979,323.938 259.846,344.600 259.197 C 387.726 257.843,385.417 259.617,381.809 230.602 C 380.825 222.681,378.762 205.940,377.226 193.400 C 375.690 180.860,374.252 169.160,374.031 167.400 C 373.810 165.640,373.437 162.580,373.203 160.600 C 371.497 146.168,371.087 143.441,370.379 141.800 C 368.311 137.011,364.657 135.913,354.400 136.999 "
       stroke="none"
       fill="#fbfbfb"
       fill-rule="evenodd" />
  </g>
  <path
     style="fill:none;stroke:#000000;stroke-width:1.51181102;stroke-linecap:butt;stroke-linejoin:miter;stroke-opacity:1;stroke-miterlimit:4;stroke-dasharray:none"
     d="m 60.363636,268.36364 16,-56.72728"
     id="path1203" />
  <path
     style="fill:none;stroke:#000000;stroke-width:1.51181;stroke-linecap:butt;stroke-linejoin:miter;stroke-miterlimit:4;stroke-dasharray:none;stroke-opacity:1"
     d="m 106.18182,267.63637 13.09091,-58.18183"
     id="path1203-6"
     sodipodi:nodetypes="cc" />
  <path
     style="fill:none;stroke:#000000;stroke-width:1.51181;stroke-linecap:butt;stroke-linejoin:miter;stroke-miterlimit:4;stroke-dasharray:none;stroke-opacity:1"
     d="M 174.54545,152.72727 157.0909,265.45455"
     id="path1570"
     sodipodi:nodetypes="cc" />
  <path
     style="fill:none;stroke:#000000;stroke-width:1.51181102;stroke-linecap:butt;stroke-linejoin:miter;stroke-opacity:1;stroke-miterlimit:4;stroke-dasharray:none"
     d="M 214.54545,202.90909 208,263.27273"
     id="path1572" />
  <path
     style="fill:none;stroke:#000000;stroke-width:1.51181;stroke-linecap:butt;stroke-linejoin:miter;stroke-miterlimit:4;stroke-dasharray:none;stroke-opacity:1"
     d="m 265.45455,199.27273 -2.18182,62.54545"
     id="path1574"
     sodipodi:nodetypes="cc" />
  <path
     style="fill:none;stroke:#000000;stroke-width:1.51181;stroke-linecap:butt;stroke-linejoin:miter;stroke-miterlimit:4;stroke-dasharray:none;stroke-opacity:1"
     d="M 319.27273,195.63636 320,261.09091"
     id="path1576"
     sodipodi:nodetypes="cc" />
  <path
     style="fill:#b3b3b3;stroke-width:1.0995;stroke-miterlimit:4;stroke-dasharray:none"
     d="m 107.71169,265.81818 c 0.24347,-0.69216 12.65195,-55.66955 12.65195,-56.05613 0,-0.1017 3.61141,-0.41897 8.02536,-0.70505 6.28643,-0.40744 8.16125,-0.77529 8.65246,-1.69766 0.34489,-0.64764 2.99126,-11.65025 5.8808,-24.45025 2.88955,-12.8 5.5333,-24.00909 5.875,-24.90909 0.38807,-1.02211 1.24229,-1.64523 2.27565,-1.65997 0.9099,-0.013 6.23618,-0.46905 11.83618,-1.01347 5.6,-0.54443 10.2047,-0.94289 10.23268,-0.88548 0.23433,0.48093 -17.1232,109.78277 -17.49256,110.15213 -0.42249,0.42249 -11.91675,0.91422 -40.46673,1.73115 -4.9301,0.14107 -7.63402,-0.0421 -7.47079,-0.50618 z"
     id="path1802" />
  <path
     style="fill:#b3b3b3;stroke-width:1.0995;stroke-miterlimit:4;stroke-dasharray:none"
     d="m 209.42149,260.2737 c 0.246,-1.75054 1.7238,-15.07979 3.28401,-29.62058 1.56021,-14.54078 2.98793,-26.58897 3.17271,-26.77375 0.18478,-0.18478 4.01083,-0.60791 8.50233,-0.94029 5.24394,-0.38805 8.37074,-0.935 8.73747,-1.52838 0.93837,-1.51832 1.29989,-4.98641 4.82221,-46.25947 0.24466,-2.86683 0.64456,-5.51859 0.88867,-5.89281 0.24411,-0.37421 2.16202,-0.90354 4.26202,-1.17627 3.67126,-0.4768 3.81818,-0.42958 3.81818,1.22728 0,0.94773 -0.63649,10.859 -1.41443,22.02504 -0.77793,11.16604 -1.49464,22.42917 -1.59268,25.02917 l -0.17827,4.72727 2.13815,0.20515 c 1.17598,0.11283 5.73814,-0.079 10.13814,-0.42629 4.4,-0.3473 8.07727,-0.58052 8.17172,-0.51828 0.60315,0.39747 -2.14562,60.38618 -2.78509,60.7814 -0.41882,0.25884 -11.29305,0.69568 -24.16497,0.97076 -12.87191,0.27508 -24.49337,0.692 -25.82546,0.9265 l -2.42197,0.42634 z"
     id="path2026" />
  <path
     style="fill:#b3b3b3;stroke-width:1.0995;stroke-miterlimit:4;stroke-dasharray:none"
     d="m 19.288038,267.65167 c -2.300401,-2.3004 -1.794571,-5.3237 3.105409,-18.56076 3.512525,-9.48892 22.437202,-61.20046 26.867179,-73.41437 1.872157,-5.16173 5.623032,-9.19038 9.665921,-10.38174 1.590399,-0.46866 5.750891,-1.07818 9.245537,-1.35449 l 6.353904,-0.5024 -1.140368,3.91741 c -0.627203,2.15457 -4.059187,12.89304 -7.626631,23.86326 -3.567444,10.97022 -6.486262,20.41643 -6.486262,20.99158 0,0.861 1.348922,0.99579 7.636364,0.76305 4.2,-0.15548 7.636364,-0.0386 7.636364,0.2597 0,0.68499 -15.173127,54.54771 -15.439617,54.80873 -0.108211,0.10599 -8.742515,0.43058 -19.187343,0.72131 l -18.990596,0.52858 z"
     id="path2065" />
  <text
     xml:space="preserve"
     style="font-style:normal;font-weight:normal;font-size:13.3333px;line-height:1.25;font-family:sans-serif;fill:#000000;fill-opacity:1;stroke:none"
     x="124.18327"
     y="251.63637"
     id="text3859"
     transform="skewX(-19.287732)"><tspan
       sodipodi:role="line"
       id="tspan3857"
       x="124.18327"
       y="251.63637">II</tspan></text>
</svg>
